<svg xmlns="http://www.w3.org/2000/svg" xmlns:xlink="http://www.w3.org/1999/xlink" version="1.1" width="256" height="256" viewBox="0 0 256 256" xml:space="preserve">

<defs>
</defs>
<g style="stroke: none; stroke-width: 0; stroke-dasharray: none; stroke-linecap: butt; stroke-linejoin: miter; stroke-miterlimit: 10; fill: none; fill-rule: nonzero; opacity: 1;" transform="translate(1.4065934065934016 1.4065934065934016) scale(2.81 2.81)" >
	<rect x="37.39" y="42.11" rx="0" ry="0" width="15.23" height="5.78" style="stroke: none; stroke-width: 1; stroke-dasharray: none; stroke-linecap: butt; stroke-linejoin: miter; stroke-miterlimit: 10; fill: rgb(0,0,0); fill-rule: nonzero; opacity: 1;" transform=" matrix(-1 -1.224647e-16 1.224647e-16 -1 90 90) "/>
	<path d="M 29.048 56.77 V 33.23 c 0 -1.016 0.824 -1.84 1.84 -1.84 h 2.099 c 1.016 0 1.84 0.824 1.84 1.84 v 23.54 c 0 1.016 -0.824 1.84 -1.84 1.84 h -2.099 C 29.871 58.61 29.048 57.786 29.048 56.77 z" style="stroke: none; stroke-width: 1; stroke-dasharray: none; stroke-linecap: butt; stroke-linejoin: miter; stroke-miterlimit: 10; fill: rgb(0,0,0); fill-rule: nonzero; opacity: 1;" transform=" matrix(1 0 0 1 0 0) " stroke-linecap="round" />
	<path d="M 20.693 51.493 V 38.507 c 0 -1.016 0.824 -1.84 1.84 -1.84 h 2.099 c 1.016 0 1.84 0.824 1.84 1.84 v 12.986 c 0 1.016 -0.824 1.84 -1.84 1.84 h -2.099 C 21.517 53.333 20.693 52.509 20.693 51.493 z" style="stroke: none; stroke-width: 1; stroke-dasharray: none; stroke-linecap: butt; stroke-linejoin: miter; stroke-miterlimit: 10; fill: rgb(0,0,0); fill-rule: nonzero; opacity: 1;" transform=" matrix(1 0 0 1 0 0) " stroke-linecap="round" />
	<path d="M 60.952 56.77 V 33.23 c 0 -1.016 -0.824 -1.84 -1.84 -1.84 h -2.099 c -1.016 0 -1.84 0.824 -1.84 1.84 v 23.54 c 0 1.016 0.824 1.84 1.84 1.84 h 2.099 C 60.129 58.61 60.952 57.786 60.952 56.77 z" style="stroke: none; stroke-width: 1; stroke-dasharray: none; stroke-linecap: butt; stroke-linejoin: miter; stroke-miterlimit: 10; fill: rgb(0,0,0); fill-rule: nonzero; opacity: 1;" transform=" matrix(1 0 0 1 0 0) " stroke-linecap="round" />
	<path d="M 69.275 51.493 V 38.507 c 0 -1.016 -0.824 -1.84 -1.84 -1.84 h -2.099 c -1.016 0 -1.84 0.824 -1.84 1.84 v 12.986 c 0 1.016 0.824 1.84 1.84 1.84 h 2.099 C 68.452 53.333 69.275 52.509 69.275 51.493 z" style="stroke: none; stroke-width: 1; stroke-dasharray: none; stroke-linecap: butt; stroke-linejoin: miter; stroke-miterlimit: 10; fill: rgb(0,0,0); fill-rule: nonzero; opacity: 1;" transform=" matrix(1 0 0 1 0 0) " stroke-linecap="round" />
	<path d="M 73.66 42.111 L 73.66 42.111 c 1.016 0 1.84 0.824 1.84 1.84 v 2.099 c 0 1.016 -0.824 1.84 -1.84 1.84 l 0 0 c -1.016 0 -1.84 -0.824 -1.84 -1.84 v -2.099 C 71.82 42.935 72.644 42.111 73.66 42.111 z" style="stroke: none; stroke-width: 1; stroke-dasharray: none; stroke-linecap: butt; stroke-linejoin: miter; stroke-miterlimit: 10; fill: rgb(0,0,0); fill-rule: nonzero; opacity: 1;" transform=" matrix(1 0 0 1 0 0) " stroke-linecap="round" />
	<path d="M 16.34 42.111 L 16.34 42.111 c 1.016 0 1.84 0.824 1.84 1.84 v 2.099 c 0 1.016 -0.824 1.84 -1.84 1.84 h 0 c -1.016 0 -1.84 -0.824 -1.84 -1.84 v -2.099 C 14.5 42.935 15.324 42.111 16.34 42.111 z" style="stroke: none; stroke-width: 1; stroke-dasharray: none; stroke-linecap: butt; stroke-linejoin: miter; stroke-miterlimit: 10; fill: rgb(0,0,0); fill-rule: nonzero; opacity: 1;" transform=" matrix(1 0 0 1 0 0) " stroke-linecap="round" />
	<path d="M 45 90 C 20.187 90 0 69.813 0 45 C 0 20.187 20.187 0 45 0 c 24.813 0 45 20.187 45 45 C 90 69.813 69.813 90 45 90 z M 45 6 C 23.495 6 6 23.495 6 45 s 17.495 39 39 39 s 39 -17.495 39 -39 S 66.505 6 45 6 z" style="stroke: none; stroke-width: 1; stroke-dasharray: none; stroke-linecap: butt; stroke-linejoin: miter; stroke-miterlimit: 10; fill: rgb(0,0,0); fill-rule: nonzero; opacity: 1;" transform=" matrix(1 0 0 1 0 0) " stroke-linecap="round" />
</g>
</svg>